<svg xmlns="http://www.w3.org/2000/svg" viewBox="0 0 433.39 140.84"><defs><style>.cls-1{fill:#fff;}.cls-2{fill:#e4051f;}</style></defs><title>Middel 2</title><g id="Laag_2" data-name="Laag 2"><g id="Laag_1-2" data-name="Laag 1"><path class="cls-1" d="M190.21,140.84l-120.79-.06a13.29,13.29,0,0,1-5.23-1.18c-1.42-.76-3.63-1.39-4.71-8.26-.21-1.33-1-5.94-1.32-7.08a56.09,56.09,0,0,0-1.6-5.75,41,41,0,0,0-2.92-5.75,21.78,21.78,0,0,0-4.91-5.56c-2.45-1.89-4.34-3.49-7.45-4.34s-4.62-1.51-7.07-1.6a25.12,25.12,0,0,0-6.51.28c-2.45.47-8.21,2-10.28,2.26a15.75,15.75,0,0,1-5.66.28,16.89,16.89,0,0,1-7-2.55,14.79,14.79,0,0,1-3.49-4.43A23.09,23.09,0,0,1,.06,92.56a9.59,9.59,0,0,1,.57-4.43,18.26,18.26,0,0,1,2.92-4.91,13.44,13.44,0,0,1,7-3.4c3.68-.66,8.49.19,11.41.94a33.57,33.57,0,0,0,8.49,1.13,22.67,22.67,0,0,0,9-1.7,29.36,29.36,0,0,0,7.74-4.34,25.37,25.37,0,0,0,7.08-8.33,52.49,52.49,0,0,0,4.18-11.29C59,53.49,60,50,60.46,48c1.18-4.79,3.41-6.65,9.12-6.68,2.36,0,118.7.2,121.88.25,3.93.06,9.27,3.24,9.24,7.51,0,.44.1,80.09,0,82.54s-1.39,5.61-5.47,7.92A9.47,9.47,0,0,1,190.21,140.84ZM7.69,92.15a4.54,4.54,0,0,0,4.63,4.44,4.45,4.45,0,1,0,0-8.89A4.54,4.54,0,0,0,7.69,92.15Z"/><path class="cls-2" d="M160.75,91.23a22.14,22.14,0,0,1,1.51-8.34,18.71,18.71,0,0,1,4.19-6.4,18.35,18.35,0,0,1,6.37-4.08A22.35,22.35,0,0,1,180.95,71a22.73,22.73,0,0,1,8.21,1.32,18,18,0,0,1,6.43,4,18.59,18.59,0,0,1,4.21,6.37A21.94,21.94,0,0,1,201.3,91a21.22,21.22,0,0,1-1.51,8.15,18.69,18.69,0,0,1-4.21,6.32,19.23,19.23,0,0,1-6.43,4.13,22.75,22.75,0,0,1-8.21,1.54,22.35,22.35,0,0,1-8.13-1.43,18.22,18.22,0,0,1-10.56-10.34A21.22,21.22,0,0,1,160.75,91.23Zm7.13-.43a16.43,16.43,0,0,0,.95,5.67A13.3,13.3,0,0,0,171.5,101a12.43,12.43,0,0,0,4.13,3A13,13,0,0,0,181,105a13.14,13.14,0,0,0,5.4-1.08,12.36,12.36,0,0,0,4.16-3,13.32,13.32,0,0,0,2.67-4.48,16.45,16.45,0,0,0,.95-5.67,14.92,14.92,0,0,0-.95-5.35,13.25,13.25,0,0,0-2.67-4.35,12.24,12.24,0,0,0-4.16-2.92,13.45,13.45,0,0,0-5.4-1.05,13.25,13.25,0,0,0-5.37,1.05,12.3,12.3,0,0,0-4.13,2.92,13.24,13.24,0,0,0-2.67,4.35A14.9,14.9,0,0,0,167.88,90.8Z"/><path class="cls-1" d="M208.27,84.27h6.16v4.16h.11A9.09,9.09,0,0,1,217.34,85a8.31,8.31,0,0,1,5.13-1.43,10.16,10.16,0,0,1,4.4.86,8.33,8.33,0,0,1,2.94,2.27A8.59,8.59,0,0,1,231.44,90a14.92,14.92,0,0,1,.49,3.83v16.36h-6.48V97.06q0-1.08-.11-2.4a8.65,8.65,0,0,0-.57-2.48,4.66,4.66,0,0,0-1.43-1.94,4.11,4.11,0,0,0-2.65-.78A6.19,6.19,0,0,0,218,90a5.24,5.24,0,0,0-1.84,1.46,5.8,5.8,0,0,0-1.05,2.11,9.4,9.4,0,0,0-.32,2.48v14.15h-6.48Z"/><path class="cls-1" d="M254.17,91.45a5.93,5.93,0,0,0-5.08-2.65,5.43,5.43,0,0,0-2.54.65,2.2,2.2,0,0,0-1.24,2.11,1.82,1.82,0,0,0,1,1.73,11.25,11.25,0,0,0,2.59.92l3.38.78a13.3,13.3,0,0,1,3.38,1.24,7.39,7.39,0,0,1,2.59,2.29,6.84,6.84,0,0,1,1,4,7.23,7.23,0,0,1-1,3.92,7.85,7.85,0,0,1-2.59,2.56,11.5,11.5,0,0,1-3.59,1.4,18.86,18.86,0,0,1-4,.43,17.18,17.18,0,0,1-5.56-.86,10.55,10.55,0,0,1-4.54-3.13l4.32-4a12.14,12.14,0,0,0,2.67,2.29,6.46,6.46,0,0,0,3.48.89,7,7,0,0,0,1.46-.16,4.73,4.73,0,0,0,1.4-.54,3.34,3.34,0,0,0,1.05-.94,2.42,2.42,0,0,0-.62-3.32A9.15,9.15,0,0,0,249.2,100q-1.57-.41-3.37-.76a13,13,0,0,1-3.37-1.13,7.07,7.07,0,0,1-2.59-2.19,6.47,6.47,0,0,1-1-3.89,7.57,7.57,0,0,1,.89-3.75,7.84,7.84,0,0,1,2.35-2.62,10.16,10.16,0,0,1,3.35-1.51,15.28,15.28,0,0,1,9,.41,8.38,8.38,0,0,1,4.1,3.05Z"/><path class="cls-1" d="M282.46,69.36h6.48v18.2h.16a9.27,9.27,0,0,1,1.24-1.32A10,10,0,0,1,292.18,85a11.17,11.17,0,0,1,2.48-1,12.53,12.53,0,0,1,3.24-.38A12.15,12.15,0,0,1,303,84.67a11.84,11.84,0,0,1,4,2.89,13.31,13.31,0,0,1,2.56,4.32,15.3,15.3,0,0,1,.92,5.35,16.18,16.18,0,0,1-.86,5.35,12.38,12.38,0,0,1-2.54,4.32,12,12,0,0,1-4.05,2.89,13.07,13.07,0,0,1-5.35,1.05,12.25,12.25,0,0,1-5.13-1.08,8.32,8.32,0,0,1-3.78-3.46h-.11v3.89h-6.16ZM304,97.23a8.44,8.44,0,0,0-.51-2.92,7.32,7.32,0,0,0-1.51-2.48,7.66,7.66,0,0,0-11.18,0,7.3,7.3,0,0,0-1.51,2.48,8.53,8.53,0,0,0,0,5.83,7.29,7.29,0,0,0,1.51,2.48,7.66,7.66,0,0,0,11.18,0,7.31,7.31,0,0,0,1.51-2.48A8.43,8.43,0,0,0,304,97.23Z"/><path class="cls-1" d="M317.56,84.27H324v4.1h.11a8.14,8.14,0,0,1,3.08-3.51,8.51,8.51,0,0,1,4.59-1.24,6.21,6.21,0,0,1,1.16.11q.57.11,1.16.27v6.26q-.81-.22-1.59-.35a9.11,9.11,0,0,0-1.54-.14,7,7,0,0,0-3.64.84,6.66,6.66,0,0,0-2.11,1.92,6.4,6.4,0,0,0-1,2.16,8.15,8.15,0,0,0-.24,1.62v13.88h-6.48Z"/><path class="cls-1" d="M337.38,97.23a13.7,13.7,0,0,1,1.11-5.59,13,13,0,0,1,3-4.29A13.21,13.21,0,0,1,346,84.59a16.1,16.1,0,0,1,11,0,13.22,13.22,0,0,1,4.48,2.75,13.07,13.07,0,0,1,3,4.29,14.66,14.66,0,0,1,0,11.18,13.07,13.07,0,0,1-3,4.29,13.22,13.22,0,0,1-4.48,2.75,16.09,16.09,0,0,1-11,0,13.2,13.2,0,0,1-4.48-2.75,13,13,0,0,1-3-4.29A13.7,13.7,0,0,1,337.38,97.23Zm6.48,0a8.43,8.43,0,0,0,.51,2.92,7.29,7.29,0,0,0,1.51,2.48,7.66,7.66,0,0,0,11.18,0,7.32,7.32,0,0,0,1.51-2.48,8.53,8.53,0,0,0,0-5.83,7.34,7.34,0,0,0-1.51-2.48,7.66,7.66,0,0,0-11.18,0,7.31,7.31,0,0,0-1.51,2.48A8.44,8.44,0,0,0,343.86,97.23Z"/><path class="cls-1" d="M371.4,97.23a13.7,13.7,0,0,1,1.11-5.59,13,13,0,0,1,3-4.29A13.21,13.21,0,0,1,380,84.59a16.1,16.1,0,0,1,11,0,13.22,13.22,0,0,1,4.48,2.75,13.07,13.07,0,0,1,3,4.29,14.66,14.66,0,0,1,0,11.18,13.07,13.07,0,0,1-3,4.29,13.22,13.22,0,0,1-4.48,2.75,16.09,16.09,0,0,1-11,0,13.21,13.21,0,0,1-4.48-2.75,13,13,0,0,1-3-4.29A13.7,13.7,0,0,1,371.4,97.23Zm6.48,0a8.41,8.41,0,0,0,.51,2.92,7.31,7.31,0,0,0,1.51,2.48,7.66,7.66,0,0,0,11.18,0,7.34,7.34,0,0,0,1.51-2.48,8.55,8.55,0,0,0,0-5.83,7.35,7.35,0,0,0-1.51-2.48,7.66,7.66,0,0,0-11.18,0,7.32,7.32,0,0,0-1.51,2.48A8.42,8.42,0,0,0,377.88,97.23Z"/><path class="cls-1" d="M427.24,106.3h-.11a8.33,8.33,0,0,1-3.78,3.46,12.25,12.25,0,0,1-5.13,1.08,13,13,0,0,1-5.37-1.05,12,12,0,0,1-4-2.89,12.32,12.32,0,0,1-2.54-4.32,16.16,16.16,0,0,1-.86-5.35,15.3,15.3,0,0,1,.92-5.35,13.3,13.3,0,0,1,2.56-4.32,11.83,11.83,0,0,1,4-2.89,12.15,12.15,0,0,1,5.08-1.05,12.54,12.54,0,0,1,3.24.38,11.19,11.19,0,0,1,2.48,1,10,10,0,0,1,1.84,1.27,9.27,9.27,0,0,1,1.24,1.32h.16V69.36h6.48v40.82h-6.16ZM411.9,97.23a8.41,8.41,0,0,0,.51,2.92,7.29,7.29,0,0,0,1.51,2.48,7.66,7.66,0,0,0,11.18,0,7.32,7.32,0,0,0,1.51-2.48,8.55,8.55,0,0,0,0-5.83,7.34,7.34,0,0,0-1.51-2.48,7.66,7.66,0,0,0-11.18,0,7.3,7.3,0,0,0-1.51,2.48A8.42,8.42,0,0,0,411.9,97.23Z"/><path class="cls-1" d="M13.37,7.2v7a6.46,6.46,0,0,1-1.18.56,12.57,12.57,0,0,1-1.37.41,11.62,11.62,0,0,1-1.44.25A12.65,12.65,0,0,1,8,15.48a8.12,8.12,0,0,1-3.21-.6,6.88,6.88,0,0,1-3.86-4A8,8,0,0,1,.43,8,7.76,7.76,0,0,1,1,5.1,7.25,7.25,0,0,1,2.5,2.74,7,7,0,0,1,4.83,1.17a7.64,7.64,0,0,1,3-.57,8.82,8.82,0,0,1,3.2.49,5.89,5.89,0,0,1,2.08,1.35L11.73,3.9A5,5,0,0,0,9.87,2.73,6.42,6.42,0,0,0,7.81,2.4,5.15,5.15,0,0,0,3.93,4.06,5.34,5.34,0,0,0,2.85,5.85,6.28,6.28,0,0,0,2.47,8a5.85,5.85,0,0,0,.42,2.23,5.52,5.52,0,0,0,1.16,1.79,5.35,5.35,0,0,0,1.74,1.19A5.45,5.45,0,0,0,8,13.68a9.41,9.41,0,0,0,1.93-.19,5.4,5.4,0,0,0,1.55-.55V9H8.31V7.2Z"/><path class="cls-1" d="M16.69,5.64h1.8V7.1h0A2.57,2.57,0,0,1,19,6.41a3.21,3.21,0,0,1,.67-.53,3.55,3.55,0,0,1,.81-.35,3.08,3.08,0,0,1,.88-.13,2.52,2.52,0,0,1,.8.12l-.08,1.94-.44-.1a2.44,2.44,0,0,0-.44,0,2.65,2.65,0,0,0-2,.74,3.25,3.25,0,0,0-.7,2.3v4.76h-1.8Z"/><path class="cls-1" d="M24.41,6.8a5,5,0,0,1,1.76-1.05,6,6,0,0,1,2-.35A5.48,5.48,0,0,1,30,5.66a3.48,3.48,0,0,1,1.23.7,2.77,2.77,0,0,1,.71,1,3.16,3.16,0,0,1,.23,1.19V13.4q0,.5,0,.92c0,.28,0,.55.06.8h-1.6q-.06-.72-.06-1.44h0A3.45,3.45,0,0,1,29.09,15a4.47,4.47,0,0,1-1.9.38,4.36,4.36,0,0,1-1.26-.18,3.08,3.08,0,0,1-1-.54,2.57,2.57,0,0,1-.71-.89,2.75,2.75,0,0,1-.26-1.23A2.73,2.73,0,0,1,24.32,11a3.1,3.1,0,0,1,1.12-1,5.39,5.39,0,0,1,1.66-.56,11.53,11.53,0,0,1,2-.17h1.32v-.4a2,2,0,0,0-.14-.72,1.94,1.94,0,0,0-.42-.65,2,2,0,0,0-.7-.46,2.66,2.66,0,0,0-1-.17,3.7,3.7,0,0,0-.91.1,4.06,4.06,0,0,0-.71.25,3.15,3.15,0,0,0-.58.35l-.5.38Zm5.08,3.76a12.68,12.68,0,0,0-1.31.07A5.15,5.15,0,0,0,27,10.9a2.36,2.36,0,0,0-.9.56,1.27,1.27,0,0,0-.35.92,1.3,1.3,0,0,0,.55,1.18,2.69,2.69,0,0,0,1.49.36A2.88,2.88,0,0,0,29,13.67a2.36,2.36,0,0,0,.84-.65,2.51,2.51,0,0,0,.46-.89,3.52,3.52,0,0,0,.14-1v-.6Z"/><path class="cls-1" d="M35,5.64h1.8V7h0A3.42,3.42,0,0,1,38.3,5.82a4.41,4.41,0,0,1,1.87-.42,5,5,0,0,1,2,.38,4.4,4.4,0,0,1,1.52,1.06,4.77,4.77,0,0,1,1,1.59A5.53,5.53,0,0,1,45,10.38a5.59,5.59,0,0,1-.34,2,4.66,4.66,0,0,1-1,1.58,4.46,4.46,0,0,1-1.52,1,5,5,0,0,1-2,.38,4.4,4.4,0,0,1-1.92-.43,3.28,3.28,0,0,1-1.38-1.17h0v7H35ZM40,7.08a3.25,3.25,0,0,0-1.3.25,2.87,2.87,0,0,0-1,.68,3,3,0,0,0-.62,1,4.13,4.13,0,0,0,0,2.66,3,3,0,0,0,.62,1,2.86,2.86,0,0,0,1,.68,3.51,3.51,0,0,0,2.6,0,2.87,2.87,0,0,0,1-.68,3,3,0,0,0,.62-1,4.13,4.13,0,0,0,0-2.66,3,3,0,0,0-.62-1,2.88,2.88,0,0,0-1-.68A3.26,3.26,0,0,0,40,7.08Z"/><path class="cls-1" d="M47.53,0h1.8V7.1h0a2.65,2.65,0,0,1,1.18-1.23,3.91,3.91,0,0,1,1.94-.47,4.11,4.11,0,0,1,1.31.21,3,3,0,0,1,1.1.65,3.14,3.14,0,0,1,.75,1.13A4.32,4.32,0,0,1,55.93,9v6.1h-1.8V9.52A3.16,3.16,0,0,0,54,8.39a2.07,2.07,0,0,0-.48-.76,1.81,1.81,0,0,0-.69-.42A2.55,2.55,0,0,0,52,7.08a2.94,2.94,0,0,0-1,.18,2.17,2.17,0,0,0-.84.57,2.69,2.69,0,0,0-.56,1,4.5,4.5,0,0,0-.2,1.42v4.88h-1.8Z"/><path class="cls-1" d="M58.65,2.24A1.27,1.27,0,0,1,59,1.31a1.3,1.3,0,0,1,1.86,0,1.27,1.27,0,0,1,.39.93,1.27,1.27,0,0,1-.39.93,1.3,1.3,0,0,1-1.86,0A1.27,1.27,0,0,1,58.65,2.24Zm.42,3.4h1.8v9.48h-1.8Z"/><path class="cls-1" d="M70.79,8.16a3.78,3.78,0,0,0-1.05-.79,2.94,2.94,0,0,0-1.31-.27,2.89,2.89,0,0,0-1.29.27,2.62,2.62,0,0,0-.92.74,3.33,3.33,0,0,0-.56,1.08,4.26,4.26,0,0,0-.19,1.27,3.54,3.54,0,0,0,.22,1.25,3.14,3.14,0,0,0,.62,1,2.85,2.85,0,0,0,1,.69,3.05,3.05,0,0,0,1.26.25,2.88,2.88,0,0,0,1.3-.27,3.34,3.34,0,0,0,1-.79l1.28,1.28A4,4,0,0,1,70.48,15a5.7,5.7,0,0,1-2,.34,5.41,5.41,0,0,1-2-.36,4.64,4.64,0,0,1-1.57-1,4.46,4.46,0,0,1-1-1.56,5.42,5.42,0,0,1-.36-2,5.51,5.51,0,0,1,.36-2,4.62,4.62,0,0,1,1-1.58,4.58,4.58,0,0,1,1.56-1,5.34,5.34,0,0,1,2-.37,5.44,5.44,0,0,1,2,.37,4.39,4.39,0,0,1,1.65,1.13Z"/><path class="cls-1" d="M79.91,1h4.94a9.16,9.16,0,0,1,2.63.34,7,7,0,0,1,2,.91,5.79,5.79,0,0,1,1.38,1.31A7,7,0,0,1,91.69,5a7.71,7.71,0,0,1,.46,1.56A8.24,8.24,0,0,1,92.29,8a7.12,7.12,0,0,1-.5,2.63,6.64,6.64,0,0,1-1.48,2.26,7.29,7.29,0,0,1-2.43,1.59,8.71,8.71,0,0,1-3.35.6H79.91Zm1.92,12.36h2.42A7.94,7.94,0,0,0,86.56,13a5.61,5.61,0,0,0,1.91-1,4.74,4.74,0,0,0,1.3-1.65A5.23,5.23,0,0,0,90.25,8,6.9,6.9,0,0,0,90,6.45a4.77,4.77,0,0,0-.83-1.73,4.92,4.92,0,0,0-1.69-1.39,6,6,0,0,0-2.8-.57H81.83Z"/><path class="cls-1" d="M96.23,11a2.37,2.37,0,0,0,.27,1.13,2.8,2.8,0,0,0,.71.87,3.27,3.27,0,0,0,1,.56,3.65,3.65,0,0,0,1.2.2,2.69,2.69,0,0,0,1.46-.39,4.7,4.7,0,0,0,1.14-1l1.36,1a5,5,0,0,1-4.2,1.94,5.22,5.22,0,0,1-2-.38,4.41,4.41,0,0,1-1.54-1,4.65,4.65,0,0,1-1-1.58,5.57,5.57,0,0,1-.34-2,5.18,5.18,0,0,1,.37-2,4.88,4.88,0,0,1,1-1.58,4.66,4.66,0,0,1,1.55-1,5,5,0,0,1,2-.38,4.68,4.68,0,0,1,2.13.44A4.21,4.21,0,0,1,102.77,7a4.53,4.53,0,0,1,.81,1.6,6.67,6.67,0,0,1,.25,1.81V11Zm5.68-1.44a3.8,3.8,0,0,0-.19-1.1,2.43,2.43,0,0,0-.51-.87,2.36,2.36,0,0,0-.85-.58,3.11,3.11,0,0,0-1.19-.21A2.88,2.88,0,0,0,98,7.09a2.94,2.94,0,0,0-.93.65,3,3,0,0,0-.59.89,2.45,2.45,0,0,0-.21,1Z"/><path class="cls-1" d="M111.31,8a2.76,2.76,0,0,0-.79-.67,2.27,2.27,0,0,0-1.15-.27,2.19,2.19,0,0,0-1.11.27.86.86,0,0,0-.47.79.9.9,0,0,0,.27.68,2.13,2.13,0,0,0,.64.42,3.72,3.72,0,0,0,.79.24l.72.14a8.44,8.44,0,0,1,1.09.34,3,3,0,0,1,.88.52,2.26,2.26,0,0,1,.58.78,2.68,2.68,0,0,1,.21,1.12,2.63,2.63,0,0,1-.34,1.37,2.87,2.87,0,0,1-.88.93,3.7,3.7,0,0,1-1.23.52,6.15,6.15,0,0,1-1.39.16,5.49,5.49,0,0,1-2.07-.36,3.72,3.72,0,0,1-1.59-1.32l1.36-1.12a5.58,5.58,0,0,0,1,.78,2.43,2.43,0,0,0,1.32.34,3.5,3.5,0,0,0,.69-.07,2.13,2.13,0,0,0,.62-.22,1.36,1.36,0,0,0,.44-.38.87.87,0,0,0,.17-.53.91.91,0,0,0-.25-.66,1.82,1.82,0,0,0-.6-.41,4.36,4.36,0,0,0-.74-.24l-.69-.15q-.58-.14-1.1-.32a3.35,3.35,0,0,1-.92-.48,2.21,2.21,0,0,1-.64-.76,2.44,2.44,0,0,1-.24-1.14A2.58,2.58,0,0,1,106.18,7a2.76,2.76,0,0,1,.82-.91,3.71,3.71,0,0,1,1.16-.54,4.88,4.88,0,0,1,1.31-.18,4.81,4.81,0,0,1,1.84.36,2.91,2.91,0,0,1,1.4,1.2Z"/><path class="cls-1" d="M115.15,2.24a1.27,1.27,0,0,1,.39-.93,1.3,1.3,0,0,1,1.86,0,1.27,1.27,0,0,1,.39.93,1.27,1.27,0,0,1-.39.93,1.3,1.3,0,0,1-1.86,0A1.27,1.27,0,0,1,115.15,2.24Zm.42,3.4h1.8v9.48h-1.8Z"/><path class="cls-1" d="M130,15a5.1,5.1,0,0,1-.37,2,4.5,4.5,0,0,1-1.05,1.54,4.76,4.76,0,0,1-1.64,1,6,6,0,0,1-2.12.36,7.77,7.77,0,0,1-2.49-.38,6,6,0,0,1-2.15-1.32l1.22-1.52a5,5,0,0,0,1.52,1.15,4.28,4.28,0,0,0,1.86.39,4.15,4.15,0,0,0,1.66-.29,2.85,2.85,0,0,0,1.05-.75,2.7,2.7,0,0,0,.55-1.05,4.53,4.53,0,0,0,.16-1.19v-1.4h-.06a3.16,3.16,0,0,1-1.41,1.27,4.42,4.42,0,0,1-1.87.41,5,5,0,0,1-1.93-.37,4.59,4.59,0,0,1-1.53-1,4.66,4.66,0,0,1-1-1.54,5.1,5.1,0,0,1-.36-1.93,5.52,5.52,0,0,1,.34-1.95,4.77,4.77,0,0,1,1-1.59,4.4,4.4,0,0,1,1.52-1.06,5,5,0,0,1,2-.38,4.41,4.41,0,0,1,1.87.42A3.43,3.43,0,0,1,128.17,7h0V5.64H130Zm-4.92-8a3.25,3.25,0,0,0-1.3.25,2.87,2.87,0,0,0-1,.68,3,3,0,0,0-.62,1,3.88,3.88,0,0,0-.22,1.33,3.18,3.18,0,0,0,.84,2.31,3.42,3.42,0,0,0,4.56,0,3.19,3.19,0,0,0,.84-2.31A3.9,3.9,0,0,0,128,9.05a3,3,0,0,0-.62-1,2.88,2.88,0,0,0-1-.68A3.26,3.26,0,0,0,125.09,7.08Z"/><path class="cls-1" d="M133,5.64h1.8V7.1h0A2.65,2.65,0,0,1,136,5.87,3.91,3.91,0,0,1,138,5.4a4.11,4.11,0,0,1,1.31.21,3,3,0,0,1,1.1.65,3.14,3.14,0,0,1,.75,1.13A4.32,4.32,0,0,1,141.41,9v6.1h-1.8V9.52a3.16,3.16,0,0,0-.18-1.13,2.07,2.07,0,0,0-.48-.76,1.81,1.81,0,0,0-.69-.42,2.55,2.55,0,0,0-.81-.13,2.94,2.94,0,0,0-1,.18,2.17,2.17,0,0,0-.84.57,2.69,2.69,0,0,0-.56,1,4.5,4.5,0,0,0-.2,1.42v4.88H133Z"/><path class="cls-1" d="M149.45,8a2.76,2.76,0,0,0-.79-.67,2.27,2.27,0,0,0-1.15-.27,2.19,2.19,0,0,0-1.11.27.86.86,0,0,0-.47.79.9.9,0,0,0,.27.68,2.13,2.13,0,0,0,.64.42,3.72,3.72,0,0,0,.79.24l.72.14a8.44,8.44,0,0,1,1.09.34,3,3,0,0,1,.88.52,2.26,2.26,0,0,1,.58.78,2.68,2.68,0,0,1,.21,1.12,2.63,2.63,0,0,1-.34,1.37,2.87,2.87,0,0,1-.88.93,3.7,3.7,0,0,1-1.23.52,6.15,6.15,0,0,1-1.39.16A5.49,5.49,0,0,1,145.2,15a3.72,3.72,0,0,1-1.59-1.32L145,12.56a5.58,5.58,0,0,0,1,.78,2.43,2.43,0,0,0,1.32.34,3.5,3.5,0,0,0,.69-.07,2.13,2.13,0,0,0,.62-.22A1.36,1.36,0,0,0,149,13a.87.87,0,0,0,.17-.53.91.91,0,0,0-.25-.66,1.82,1.82,0,0,0-.6-.41,4.36,4.36,0,0,0-.74-.24l-.69-.15q-.58-.14-1.1-.32a3.35,3.35,0,0,1-.92-.48,2.21,2.21,0,0,1-.64-.76A2.44,2.44,0,0,1,144,8.32,2.58,2.58,0,0,1,144.32,7a2.76,2.76,0,0,1,.82-.91,3.71,3.71,0,0,1,1.16-.54,4.88,4.88,0,0,1,1.31-.18,4.81,4.81,0,0,1,1.84.36,2.91,2.91,0,0,1,1.4,1.2Z"/><path class="cls-1" d="M158.65,7.2h-2.58v4.3q0,.4,0,.79a2.08,2.08,0,0,0,.15.7,1.14,1.14,0,0,0,.4.5,1.36,1.36,0,0,0,.79.19,3.79,3.79,0,0,0,.66-.06,1.91,1.91,0,0,0,.62-.22V15a2.35,2.35,0,0,1-.83.25,6.2,6.2,0,0,1-.79.07,3.62,3.62,0,0,1-1.61-.29,2,2,0,0,1-.84-.75,2.42,2.42,0,0,1-.32-1q0-.57,0-1.15V7.2h-2.08V5.64h2.08V3h1.8V5.64h2.58Z"/><path class="cls-1" d="M169.65,15.12h-1.8V13.66h0a2.65,2.65,0,0,1-1.18,1.23,3.91,3.91,0,0,1-1.94.47,4.08,4.08,0,0,1-1.32-.21,3,3,0,0,1-1.09-.65,3.13,3.13,0,0,1-.75-1.13,4.31,4.31,0,0,1-.28-1.63V5.64h1.8v5.6a3.17,3.17,0,0,0,.18,1.13,2.06,2.06,0,0,0,.48.76,1.8,1.8,0,0,0,.69.42,2.54,2.54,0,0,0,.81.13,2.93,2.93,0,0,0,1-.18,2.17,2.17,0,0,0,.84-.57,2.69,2.69,0,0,0,.56-1,4.5,4.5,0,0,0,.2-1.42V5.64h1.8Z"/><path class="cls-1" d="M182.15,15.12h-1.8V13.76h0a3.42,3.42,0,0,1-1.43,1.18,4.41,4.41,0,0,1-1.87.42,5,5,0,0,1-2-.38,4.39,4.39,0,0,1-1.52-1.06,4.79,4.79,0,0,1-1-1.58,5.5,5.5,0,0,1-.34-2,5.58,5.58,0,0,1,.34-2,4.66,4.66,0,0,1,1-1.58,4.47,4.47,0,0,1,1.52-1,5,5,0,0,1,2-.38,4.4,4.4,0,0,1,1.92.43A3.28,3.28,0,0,1,180.31,7h0V0h1.8Zm-4.92-1.44a3.25,3.25,0,0,0,1.3-.25,2.87,2.87,0,0,0,1-.68,3,3,0,0,0,.62-1,4.13,4.13,0,0,0,0-2.66,3,3,0,0,0-.62-1,2.88,2.88,0,0,0-1-.68,3.51,3.51,0,0,0-2.6,0A2.87,2.87,0,0,0,175,8a3,3,0,0,0-.62,1,4.13,4.13,0,0,0,0,2.66,3,3,0,0,0,.62,1,2.86,2.86,0,0,0,1,.68A3.24,3.24,0,0,0,177.23,13.68Z"/><path class="cls-1" d="M184.87,2.24a1.27,1.27,0,0,1,.39-.93,1.3,1.3,0,0,1,1.86,0,1.27,1.27,0,0,1,.39.93,1.27,1.27,0,0,1-.39.93,1.3,1.3,0,0,1-1.86,0A1.27,1.27,0,0,1,184.87,2.24Zm.42,3.4h1.8v9.48h-1.8Z"/><path class="cls-1" d="M189.77,10.38a4.82,4.82,0,0,1,.39-1.94,5.05,5.05,0,0,1,1.07-1.58,5.09,5.09,0,0,1,7.16,0,5.05,5.05,0,0,1,1.07,1.58,4.82,4.82,0,0,1,.39,1.94,4.93,4.93,0,0,1-1.46,3.53,5.08,5.08,0,0,1-1.6,1.06,5.22,5.22,0,0,1-4,0,5.08,5.08,0,0,1-1.6-1.06,4.93,4.93,0,0,1-1.46-3.53Zm1.92,0a3.88,3.88,0,0,0,.22,1.33,3,3,0,0,0,.62,1,2.86,2.86,0,0,0,1,.68,3.51,3.51,0,0,0,2.6,0,2.87,2.87,0,0,0,1-.68,3,3,0,0,0,.62-1,4.13,4.13,0,0,0,0-2.66,3,3,0,0,0-.62-1,2.88,2.88,0,0,0-1-.68,3.51,3.51,0,0,0-2.6,0,2.87,2.87,0,0,0-1,.68,3,3,0,0,0-.62,1A3.88,3.88,0,0,0,191.69,10.38Z"/></g></g></svg>