<svg xmlns="http://www.w3.org/2000/svg" viewBox="0 0 438.14 99.53"><defs><style>.cls-1,.cls-3{fill:#e4051f;}.cls-2{font-size:54px;fill:#fff;font-family:Avenir-Heavy, Avenir;letter-spacing:0.02em;}.cls-3{letter-spacing:0em;}</style></defs><title>Middel 1</title><g id="Laag_2" data-name="Laag 2"><g id="Laag_1-2" data-name="Laag 1"><path class="cls-1" d="M190.21,99.53,69.42,99.46a13.29,13.29,0,0,1-5.23-1.18c-1.42-.76-3.63-1.39-4.71-8.26-.21-1.33-1-5.94-1.32-7.08a56.09,56.09,0,0,0-1.6-5.75,41,41,0,0,0-2.92-5.75,21.78,21.78,0,0,0-4.91-5.56c-2.45-1.89-4.34-3.49-7.45-4.34s-4.62-1.51-7.07-1.6a25.12,25.12,0,0,0-6.51.28c-2.45.47-8.21,2-10.28,2.26a15.75,15.75,0,0,1-5.66.28,16.89,16.89,0,0,1-7-2.55,14.79,14.79,0,0,1-3.49-4.43A23.09,23.09,0,0,1,.06,51.25a9.59,9.59,0,0,1,.57-4.43,18.26,18.26,0,0,1,2.92-4.91,13.44,13.44,0,0,1,7-3.4c3.68-.66,8.49.19,11.41.94a33.57,33.57,0,0,0,8.49,1.13,22.67,22.67,0,0,0,9-1.7,29.36,29.36,0,0,0,7.74-4.34,25.37,25.37,0,0,0,7.08-8.33,52.49,52.49,0,0,0,4.18-11.29C59,12.18,60,8.73,60.46,6.68,61.64,1.9,63.86,0,69.58,0c2.36,0,118.7.2,121.88.25,3.93.06,9.27,3.24,9.24,7.51,0,.44.1,80.09,0,82.54s-1.39,5.61-5.47,7.92A9.47,9.47,0,0,1,190.21,99.53ZM7.69,50.84a4.54,4.54,0,0,0,4.63,4.44,4.45,4.45,0,1,0,0-8.89A4.54,4.54,0,0,0,7.69,50.84Z"/><text class="cls-2" transform="translate(158.54 68.87)">O<tspan class="cls-1" x="46.06" y="0">ns b</tspan><tspan class="cls-3" x="155.36" y="0">r</tspan><tspan class="cls-1" x="176.47" y="0">ood</tspan></text></g></g></svg>